<svg viewBox="0 0 512 512" xmlns="http://www.w3.org/2000/svg">  
  <defs>
    <marker id="end" viewBox="0 0 8 8" refX="4" refY="4" markerWidth="4" markerHeight="4" orient="auto-start-reverse">
      <path d="M 0 0 L 8 4 L 0 8" />
    </marker>
    <pattern id="grid" width="32" height="32" patternUnits="userSpaceOnUse">
      <path d="M 0 0 L 32 0 32 32 0 32 0 0" fill="none" stroke="#ccc" stroke-width="1" />
    </pattern>
  </defs>
  <rect width="100%" height="100%" fill="url(#grid)" />
  <!-- Will not be in your input --><polyline points="16,496 496,496 496,464 16,464 16,432 496,432 496,400 16,400 16,368 496,368 496,336 16,336 16,304 496,304 496,272 16,272 16,240 496,240 496,208 16,208 16,176 496,176 496,144 16,144 16,112 496,112 496,80 16,80 16,48 496,48 496,16 16,16" fill="none" stroke="#aaa" stroke-dasharray="2" marker-end="url(#end)" />
  <!-- Will not be in your input --><text y="32">43655233663416642164633436554361262525416451256453216156</text>
  <!--
    FOUR: [  4]    0 
   THREE:    4  [  3]
     SIX: [ 10]    3 
    FIVE:   10  [  8]
    FIVE: [ 42]    8 
     TWO:   42  [ 10]
   THREE: [ 50]   10 
   THREE:   50  [ 13]
     SIX: [114]   13 
     SIX:  114  [ 19]
   THREE: [220]   19 
    FOUR:  220  [ 35]
     ONE: [165]   35 
     SIX:  165  [ 99]
     SIX: [171]   99 
    FOUR:  171  [115]
     TWO: [ 47]  115 
     ONE:   47  [117]
     SIX: [  9]  117 
    FOUR:    9  [121]
     SIX: [ 73]  121 
   THREE:   73  [124]
   THREE: [ 81]  124 
    FOUR:   81  [128]
   THREE: [ 89]  128 
     SIX:   89  [134]
    FIVE: [121]  134 
    FIVE:  121  [149]
    FOUR: [137]  149 
   THREE:  137  [157]
     SIX: [201]  157 
     ONE:  201  [159]
     TWO: [205]  159 
     SIX:  205  [165]
     TWO: [209]  165 
    FIVE:  209  [197]
     TWO: [219]  197 
    FIVE:  219  [229]
    FOUR: [235]  229 
     ONE:  235  [231]
     SIX: [219]  231 
    FOUR:  219  [235]
    FIVE: [251]  235 
     ONE:  251  [236]
     TWO: [ 78]  236 
    FIVE:   78  [241]
     SIX: [142]  241 
    FOUR:  142  [245]
    FIVE: [174]  245 
   THREE:  174  [248]
     TWO: [178]  248 
     ONE:  178  [249]
     SIX: [242]  249 
     ONE:  242  [250]
    FIVE: [238]  250 
     SIX:  238  [256]
  COVERAGE: 21%
  -->
  <!--  12 +> 129 --><line x1="368" y1="496" x2="16" y2="240" stroke="GREEN" marker-end="url(#end)" />
  <!--  22 ->  10 --><line x1="336" y1="464" x2="304" y2="496" stroke="RED" marker-end="url(#end)" />
  <!--  26 +>  68 --><line x1="208" y1="464" x2="112" y2="368" stroke="GREEN" marker-end="url(#end)" />
  <!--  31 +> 246 --><line x1="48" y1="464" x2="336" y2="16" stroke="GREEN" marker-end="url(#end)" />
  <!--  36 +> 113 --><line x1="112" y1="432" x2="496" y2="272" stroke="GREEN" marker-end="url(#end)" />
  <!--  40 +>  56 --><line x1="240" y1="432" x2="272" y2="400" stroke="GREEN" marker-end="url(#end)" />
  <!--  60 +> 124 --><line x1="144" y1="400" x2="144" y2="272" stroke="GREEN" marker-end="url(#end)" />
  <!--  61 ->  15 --><line x1="112" y1="400" x2="464" y2="496" stroke="RED" marker-end="url(#end)" />
  <!--  63 +> 119 --><line x1="48" y1="400" x2="304" y2="272" stroke="GREEN" marker-end="url(#end)" />
  <!--  69 +> 237 --><line x1="144" y1="368" x2="400" y2="48" stroke="GREEN" marker-end="url(#end)" />
  <!--  85 +> 162 --><line x1="368" y1="336" x2="48" y2="176" stroke="GREEN" marker-end="url(#end)" />
  <!-- 101 +> 144 --><line x1="144" y1="304" x2="496" y2="240" stroke="GREEN" marker-end="url(#end)" />
  <!-- 103 +> 245 --><line x1="208" y1="304" x2="368" y2="16" stroke="GREEN" marker-end="url(#end)" />
  <!-- 106 +> 160 --><line x1="304" y1="304" x2="16" y2="208" stroke="GREEN" marker-end="url(#end)" />
  <!-- 111 ->   9 --><line x1="464" y1="304" x2="272" y2="496" stroke="RED" marker-end="url(#end)" />
  <!-- 122 +> 220 --><line x1="208" y1="272" x2="144" y2="80" stroke="GREEN" marker-end="url(#end)" />
  <!-- 132 +> 224 --><line x1="112" y1="240" x2="16" y2="80" stroke="GREEN" marker-end="url(#end)" />
  <!-- 143 -> 123 --><line x1="464" y1="240" x2="176" y2="272" stroke="RED" marker-end="url(#end)" />
  <!-- 155 ->  30 --><line x1="176" y1="208" x2="80" y2="464" stroke="RED" marker-end="url(#end)" />
  <!-- 166 -> 149 --><line x1="176" y1="176" x2="368" y2="208" stroke="RED" marker-end="url(#end)" />
  <!-- 175 ->  47 --><line x1="464" y1="176" x2="464" y2="432" stroke="RED" marker-end="url(#end)" />
  <!-- 179 +> 233 --><line x1="432" y1="144" x2="272" y2="48" stroke="GREEN" marker-end="url(#end)" />
  <!-- 188 ->  70 --><line x1="144" y1="144" x2="176" y2="368" stroke="RED" marker-end="url(#end)" />
  <!-- 190 ->  91 --><line x1="80" y1="144" x2="176" y2="336" stroke="RED" marker-end="url(#end)" />
  <!-- 200 -> 177 --><line x1="240" y1="112" x2="496" y2="144" stroke="RED" marker-end="url(#end)" />
  <!-- 211 -> 194 --><line x1="432" y1="80" x2="48" y2="112" stroke="RED" marker-end="url(#end)" />
  <!-- 212 ->  53 --><line x1="400" y1="80" x2="368" y2="400" stroke="RED" marker-end="url(#end)" />
  <!-- 213 +> 219 --><line x1="368" y1="80" x2="176" y2="80" stroke="GREEN" marker-end="url(#end)" />
  <!-- 222 -> 165 --><line x1="80" y1="80" x2="144" y2="176" stroke="RED" marker-end="url(#end)" />
  <!-- 223 ->  74 --><line x1="48" y1="80" x2="304" y2="368" stroke="RED" marker-end="url(#end)" />
  <!-- 253 ->  54 --><line x1="112" y1="16" x2="336" y2="400" stroke="RED" marker-end="url(#end)" />
  <!-- 255 ->  78 --><line x1="48" y1="16" x2="432" y2="368" stroke="RED" marker-end="url(#end)" />
</svg>
